PathFileType	4	(x/y/z)	S04_PSF_T13.trc
DataRate	CameraRate	NumFrames	NumMarkers	Units	OrigDataRate	OrigDataStartFrame	OrigNumFrames
240	240	4	51	mm	240	55	432
Frame#	Time	Sternum			R.Acromium			L.Acromium			Top.Head			R.ASIS			L.ASIS			R.PSIS			L.PSIS			R.Great.Tro			L.Great.Tro			R.Iliac.Crest			L.Iliac.Crest			V.Sacral			R.Thigh.Upper.Post			R.Thigh.Lower.Ant			R.Thigh.Lower.Post			R.Thigh.Upper.Ant			R.Knee.Lat			R.Knee.Med			R.Shank.Upper.Post			R.Shank.Lower.Ant			R.Shank.Lower.Post			R.Shank.Upper.Ant			R.Ankle.Lat			R.Ankle.Med			R.Heel.Upper			R.Heel.Med			R.Heel.Lat			R.Toe.Lat			R.Toe.Med			R.Toe.Tip			L.Thigh.Upper.Post			L.Thigh.Lower.Ant			L.Thigh.Lower.Post			L.Thigh.Upper.Ant			L.Knee.Lat			L.Knee.Med			L.Shank.Upper.Post			L.Shank.Lower.Ant			L.Shank.Lower.Post			L.Shank.Upper.Ant			L.Ankle.Lat			L.Ankle.Med			L.Heel.Upper			L.Heel.Med			L.Heel.Lat			L.Toe.Lat			L.Toe.Med			L.Toe.Tip			Cervical.Spine			Back			
		X1	Y1	Z1	X2	Y2	Z2	X3	Y3	Z3	X4	Y4	Z4	X5	Y5	Z5	X6	Y6	Z6	X7	Y7	Z7	X8	Y8	Z8	X9	Y9	Z9	X10	Y10	Z10	X11	Y11	Z11	X12	Y12	Z12	X13	Y13	Z13	X14	Y14	Z14	X15	Y15	Z15	X16	Y16	Z16	X17	Y17	Z17	X18	Y18	Z18	X19	Y19	Z19	X20	Y20	Z20	X21	Y21	Z21	X22	Y22	Z22	X23	Y23	Z23	X24	Y24	Z24	X25	Y25	Z25	X26	Y26	Z26	X27	Y27	Z27	X28	Y28	Z28	X29	Y29	Z29	X30	Y30	Z30	X31	Y31	Z31	X32	Y32	Z32	X33	Y33	Z33	X34	Y34	Z34	X35	Y35	Z35	X36	Y36	Z36	X37	Y37	Z37	X38	Y38	Z38	X39	Y39	Z39	X40	Y40	Z40	X41	Y41	Z41	X42	Y42	Z42	X43	Y43	Z43	X44	Y44	Z44	X45	Y45	Z45	X46	Y46	Z46	X47	Y47	Z47	X48	Y48	Z48	X49	Y49	Z49	X50	Y50	Z50	X51	Y51	Z51	

55	0.225	-1267.9	1279.8	249.69	-1404.7	1509.6	425.37	-1421.2	1484.9	75.759	-1365.4	1831.3	226.56	NaN	NaN	NaN	-1280.3	1016.3	145.56	NaN	NaN	NaN	NaN	NaN	NaN	-1393.6	905.52	451.76	-1388.6	928.68	74.375	-1389.3	1086.8	435.28	-1390	1090.3	98.214	-1523.4	988.94	244.32	-1354.4	646.59	443.5	-1266	571.54	421.51	-1343.4	557.4	430.75	-1271.1	681.95	437.9	-1324.5	491.35	424.92	-1329.8	490.11	292.8	-1531.2	398.57	413.75	-1548	293.44	383.68	-1586.2	354.54	400.95	-1496.4	343.17	403.77	-1672.2	277.16	383.54	-1638.3	256.27	300.54	-1726.5	303.28	319.98	-1739.8	276.3	290.69	-1756.7	287.26	351.84	-1675.2	148.59	424.35	-1634.1	108.34	315.26	-1576.2	77.711	370.63	-1360	688.57	88.131	-1260.9	610.57	99.022	-1334.3	604.22	104.28	-1294.3	694.71	79.399	-1277.1	517.45	116.73	-1277.5	509.41	239.77	-1349.2	334.86	115.59	-1280.1	249.77	124.92	-1344.9	255.59	126.59	-1289.4	325.16	114.97	-1303.3	99.71	145.73	-1297.1	110.29	237.38	-1375.6	69.624	192.13	-1368.2	46.031	226.2	-1372.7	42.482	164.65	-1188.9	42.939	126.17	-1157.6	51.21	242.02	-1100.3	62.535	192.3	-1463.1	1551.6	255.08	-1535.9	1289.4	246.39
56	0.22917	-1262.6	1280.6	249.41	-1399.7	1510.5	424.92	-1415.7	1485.8	75.319	-1359.8	1832.2	226.06	NaN	NaN	NaN	-1275.4	1016.9	144.96	NaN	NaN	NaN	NaN	NaN	NaN	-1388	906.58	451.52	-1384.1	929.3	74.163	-1384	1087.8	434.89	-1385.1	1091.2	97.852	-1518.4	989.82	244.29	-1345.9	647.82	443.1	-1256.8	573.77	420.59	-1333.8	558.72	430.27	-1263	684.1	437.2	-1314.5	492.93	424.15	-1320.1	491.91	291.99	-1520.4	398.52	412.81	-1536.2	293.21	382.95	-1575.4	354.15	400.13	-1486.6	343.08	403.15	-1660.2	275.75	382.67	-1626.5	255.26	299.64	-1715.2	301.04	319.12	-1728.1	273.81	289.83	-1745	284.71	350.95	-1661.3	147.32	423.8	-1620.1	107.47	314.67	-1561.9	77.674	370.09	-1357.2	689.21	87.986	-1258.6	610.45	98.802	-1332	604.65	104.12	-1291.9	694.92	79.064	-1275.4	517.41	116.58	-1275.7	509.43	239.61	-1348.3	335.16	115.66	-1279.6	249.75	124.83	-1344	256	126.58	-1288.6	325.19	114.88	-1303.3	99.82	145.82	-1297	110.36	237.44	-1375.6	69.749	192.18	-1368.2	46.105	226.22	-1372.6	42.612	164.67	-1188.9	42.93	126.15	-1157.5	51.039	242.02	-1100.2	62.299	192.28	-1457.8	1552.5	254.57	-1530.7	1290.4	245.79
57	0.23333	-1257.4	1281.4	249.13	-1394.6	1511.5	424.48	-1410.1	1486.7	74.89	-1354.2	1833	225.58	NaN	NaN	NaN	-1270.4	1017.6	144.36	NaN	NaN	NaN	NaN	NaN	NaN	-1382.3	907.65	451.3	-1379.7	929.92	73.963	-1378.8	1088.7	434.51	-1380.2	1092	97.498	-1513.4	990.69	244.29	-1337.3	649.08	442.72	-1247.6	576.02	419.67	-1324.3	560.07	429.81	-1255	686.27	436.54	-1304.5	494.54	423.39	-1310.5	493.73	291.23	-1509.6	398.32	411.9	-1524.3	292.83	382.23	-1564.5	353.55	399.32	-1476.3	342.94	402.51	-1648	274.07	381.82	-1614.5	254.05	298.75	-1703.8	298.49	318.31	-1716.3	271.01	288.98	-1733.2	281.82	350.1	-1647.2	145.77	423.23	-1605.9	106.43	314.04	-1547.4	77.415	369.49	-1354.5	689.86	87.837	-1256.3	610.32	98.57	-1329.8	605.07	103.94	-1289.5	695.12	78.719	-1273.8	517.37	116.42	-1274	509.44	239.44	-1347.5	335.42	115.75	-1279.1	249.74	124.72	-1343	256.42	126.55	-1287.8	325.24	114.78	-1303.2	99.924	145.9	-1296.8	110.44	237.48	-1375.5	69.88	192.23	-1368.2	46.189	226.24	-1372.6	42.738	164.7	-1188.8	42.919	126.13	-1157.5	50.88	242.02	-1100.2	62.078	192.26	-1452.5	1553.4	254.08	-1525.5	1291.3	245.2
58	0.2375	-1252.3	1282.2	248.87	-1389.6	1512.4	424.05	-1404.6	1487.6	74.469	-1348.6	1833.7	225.13	NaN	NaN	NaN	-1265.5	1018.3	143.76	-1488.1	1027.4	286.68	-1482.8	1037.4	205.08	-1376.6	908.72	451.09	-1375.3	930.53	73.773	-1373.6	1089.7	434.14	-1375.3	1092.9	97.152	-1508.3	991.55	244.32	-1328.9	650.36	442.38	-1238.6	578.29	418.76	-1314.9	561.45	429.38	-1247	688.44	435.92	-1294.5	496.16	422.64	-1300.9	495.54	290.52	-1498.8	397.97	411.02	-1512.3	292.3	381.5	-1553.5	352.75	398.52	-1465.6	342.76	401.85	-1635.7	272.13	381.02	-1602.3	252.63	297.86	-1692.3	295.66	317.54	-1704.4	267.93	288.16	-1721.3	278.6	349.31	-1632.8	143.98	422.62	-1591.3	105.21	313.37	-1532.8	76.951	368.83	-1351.9	690.51	87.686	-1254	610.19	98.33	-1327.6	605.5	103.77	-1287.2	695.33	78.369	-1272.2	517.32	116.25	-1272.3	509.45	239.27	-1346.8	335.66	115.86	-1278.7	249.74	124.6	-1342	256.85	126.51	-1287.1	325.29	114.67	-1303.1	100.02	145.97	-1296.7	110.52	237.52	-1375.5	70.016	192.27	-1368.2	46.282	226.26	-1372.5	42.861	164.72	-1188.8	42.904	126.11	-1157.4	50.731	242.02	-1100.1	61.868	192.23	-1447.1	1554.3	253.59	-1520.3	1292.2	244.62
